<svg xmlns="http://www.w3.org/2000/svg"
     width="593px" height="566px">
    <path fill-rule="evenodd" d="M45.0,1.0 C92.995,1.0 141.4,1.0 189.0,1.0 C208.397,0.999 234.277,-1.904 249.0,4.0 C271.469,13.11 315.198,62.612 334.0,80.999 C352.488,99.80 384.601,114.932 387.0,147.999 C360.530,143.642 331.442,143.637 304.999,147.999 C279.122,101.547 203.512,72.515 139.0,101.0 C112.932,112.509 91.846,135.70 77.999,159.0 C74.666,168.332 71.333,177.667 68.0,187.0 C63.333,190.666 58.666,194.333 54.0,197.999 C41.63,210.985 30.846,229.174 27.0,251.0 C16.442,310.905 60.77,348.910 100.999,358.999 C121.741,364.113 151.927,361.237 176.0,361.0 C180.255,400.264 208.64,424.732 227.999,448.999 C183.337,448.999 138.662,448.999 94.0,448.999 C75.486,449.0 51.206,451.801 36.0,447.0 C25.183,443.584 14.332,434.76 9.0,425.0 C-4.465,402.79 2.999,346.378 2.999,313.0 C2.999,248.6 2.999,182.993 2.999,118.0 C2.999,90.219 -1.947,50.68 6.999,29.0 C14.315,11.775 27.967,8.974 45.0,1.0 ZM171.0,301.999 C127.940,303.459 91.552,305.622 85.0,270.0 C76.623,224.461 140.131,219.253 154.999,250.0 C169.331,236.1 183.668,221.998 198.0,207.999 C181.544,184.627 164.884,186.218 141.999,171.0 C142.999,169.666 144.0,168.333 145.0,166.999 C152.332,162.333 159.667,157.666 167.0,153.0 C197.405,140.461 234.882,152.855 249.0,172.0 C249.0,172.333 249.0,172.666 249.0,172.999 C211.670,190.312 174.593,250.169 171.0,301.999 ZM329.0,156.999 C437.386,155.485 533.846,238.576 503.999,355.999 C497.322,382.270 483.783,400.712 471.999,421.0 C505.996,454.996 540.3,489.3 574.0,522.999 C582.951,531.946 606.572,554.762 582.0,564.999 C563.229,569.684 551.240,547.240 542.0,538.0 C510.669,507.3 479.330,475.996 448.0,444.999 C422.845,459.478 401.366,474.33 366.0,479.999 C243.75,500.738 147.937,367.278 196.999,253.0 C213.758,213.966 247.867,182.711 288.0,166.999 C301.665,163.667 315.334,160.332 329.0,156.999 ZM334.0,191.0 C320.521,196.330 306.258,195.818 294.0,200.999 C261.338,214.805 233.787,246.287 222.999,282.0 C197.869,365.199 269.675,460.274 353.999,447.0 C408.640,438.398 445.259,412.942 464.0,368.999 C504.994,272.876 428.102,190.44 334.0,191.0 ZM380.999,210.0 C444.3,226.336 484.132,310.511 443.0,377.999 C435.658,390.45 427.166,404.46 414.0,409.999 C414.666,409.0 415.333,407.999 416.0,406.999 C421.666,396.667 427.333,386.332 433.0,375.999 C446.506,341.413 439.350,289.959 424.0,263.999 C412.602,244.726 386.467,232.718 380.999,210.0 ZM311.0,279.0 C353.744,279.949 375.284,329.902 348.999,362.999 C331.967,384.447 287.978,380.817 249.0,380.0 C212.353,312.822 239.950,242.844 295.999,216.0 C302.546,235.619 310.916,250.24 311.0,279.0 Z"/>
</svg>